<?xml version="1.0" standalone="no"?>
<!DOCTYPE svg PUBLIC "-//W3C//DTD SVG 20010904//EN"
 "http://www.w3.org/TR/2001/REC-SVG-20010904/DTD/svg10.dtd">
<svg version="1.0" xmlns="http://www.w3.org/2000/svg"
 width="688.000000pt" height="1538.000000pt" viewBox="0 0 688.000000 1538.000000"
 preserveAspectRatio="xMidYMid meet">

<g transform="translate(0.000000,1538.000000) scale(0.100000,-0.100000)"
fill="#000000" stroke="none">
<path d="M3381 10065 c-70 -101 -99 -167 -107 -246 -10 -98 13 -167 79 -236
l52 -55 0 -167 c1 -153 3 -173 28 -256 16 -49 50 -137 76 -195 66 -142 74
-173 74 -260 0 -94 -25 -167 -84 -245 -138 -180 -162 -239 -135 -327 19 -63
50 -104 96 -128 47 -24 71 -25 110 -5 40 21 60 53 60 98 0 43 -18 81 -84 182
-25 38 -46 76 -46 85 0 8 17 40 38 71 20 31 42 65 49 75 11 18 14 16 48 -21
85 -95 140 -203 151 -299 5 -41 1 -71 -15 -123 -52 -167 -191 -262 -367 -251
-222 15 -366 218 -310 438 20 78 72 167 185 315 96 126 129 192 138 276 3 32
9 59 13 59 16 0 54 -109 58 -167 7 -108 -19 -158 -172 -323 -119 -128 -156
-195 -156 -279 0 -97 56 -187 145 -234 49 -26 146 -29 189 -7 43 22 41 34 -6
47 -85 23 -166 103 -189 186 -15 57 -6 154 19 202 11 22 46 68 76 103 111 126
139 182 139 287 0 75 -13 116 -65 207 -30 54 -45 97 -64 190 -30 144 -51 202
-103 287 -33 52 -38 68 -30 88 36 94 -31 222 -149 286 -73 40 -191 67 -289 67
l-84 0 61 -119 c78 -150 138 -227 210 -266 47 -25 67 -30 135 -31 78 -2 80 -2
103 -35 45 -63 112 -235 112 -286 0 -22 -119 99 -125 128 -4 15 -24 48 -46 73
-67 76 -190 101 -311 62 -58 -19 -149 -72 -155 -92 -2 -5 18 -20 44 -32 27
-12 82 -44 123 -70 86 -56 127 -72 182 -72 41 0 102 21 128 45 14 13 21 11 57
-15 43 -32 100 -108 110 -148 3 -13 3 -58 1 -100 -5 -90 -38 -167 -101 -238
-84 -96 -176 -110 -367 -59 -152 42 -253 39 -420 -10 -69 -20 -151 -39 -183
-42 -42 -4 -55 -9 -47 -17 21 -21 140 -10 245 23 154 49 224 51 381 10 102
-26 148 -33 218 -33 l89 1 -31 -29 c-30 -26 -39 -28 -110 -28 -49 0 -112 9
-172 25 -151 39 -286 31 -367 -22 -34 -23 -24 -24 32 -7 81 26 225 23 313 -7
72 -24 72 -24 57 -46 -9 -13 -31 -25 -53 -28 -128 -22 -194 -61 -233 -138
l-21 -39 39 30 c66 52 116 59 236 36 l28 -6 -26 -24 c-38 -35 -65 -101 -65
-160 0 -28 3 -54 6 -57 4 -4 17 15 29 41 25 53 78 105 132 127 19 8 39 15 43
15 4 0 10 -35 12 -77 8 -140 84 -250 216 -315 127 -63 304 -46 417 40 91 69
155 193 155 302 l0 60 53 -20 c62 -23 121 -84 139 -142 9 -32 13 -36 21 -22
17 29 0 121 -32 181 -17 31 -29 58 -27 61 3 2 42 6 88 9 82 5 84 5 135 -30
l52 -35 -24 48 c-38 76 -70 92 -229 120 -66 11 -95 28 -74 42 7 4 49 20 93 34
94 31 220 35 298 11 39 -12 46 -13 37 -2 -47 56 -238 67 -381 22 -55 -17 -110
-27 -148 -27 l-61 0 40 -79 c25 -52 53 -90 76 -108 66 -51 105 -86 100 -90 -2
-3 -17 4 -33 16 -15 11 -51 27 -79 36 -48 15 -52 19 -84 86 -18 38 -57 102
-87 142 -52 68 -83 118 -83 132 0 4 19 -10 42 -29 69 -60 126 -68 243 -35 192
53 258 61 382 44 53 -8 193 -54 253 -85 l45 -22 -25 27 c-30 32 -90 64 -185
96 -100 34 -286 35 -394 1 -194 -61 -283 -44 -332 63 -10 22 -19 56 -19 75 -1
37 -27 120 -75 232 -32 76 -30 85 30 156 l32 36 51 -22 c90 -39 157 -27 254
45 28 20 77 51 110 68 l60 32 -50 37 c-65 47 -121 66 -196 66 -113 -1 -194
-48 -222 -128 -10 -27 -39 -73 -66 -102 l-48 -55 0 42 c0 60 42 164 96 240
l46 65 47 -8 c155 -28 259 30 358 202 79 135 113 208 100 216 -40 26 -245 -8
-342 -56 -138 -69 -188 -136 -187 -253 1 -63 -1 -68 -48 -128 -48 -64 -100
-161 -100 -189 0 -8 -4 -17 -9 -20 -13 -9 -31 100 -30 188 0 103 12 176 30
186 76 45 122 110 139 200 12 64 -6 163 -43 236 -30 58 -113 174 -126 174 -5
0 -32 -34 -60 -75z m95 -27 c80 -95 116 -257 79 -354 -15 -40 -66 -104 -83
-104 -4 0 -5 38 -3 84 3 80 -12 208 -27 233 -4 6 -7 -48 -7 -120 0 -73 -4
-149 -8 -171 l-8 -38 -26 23 c-58 54 -89 163 -73 250 14 73 96 229 120 229 4
0 21 -15 36 -32z m624 -278 c0 -5 -24 -53 -52 -106 -93 -169 -171 -237 -276
-237 -29 0 -58 5 -64 11 -16 16 33 71 135 153 48 40 90 76 94 82 17 27 -150
-76 -204 -127 l-63 -58 0 37 c0 76 65 151 175 201 83 38 255 68 255 44z
m-1121 -25 c83 -20 152 -58 201 -111 44 -48 68 -113 54 -145 -9 -21 -11 -20
-33 12 -13 19 -43 50 -67 69 -49 39 -143 95 -149 88 -2 -2 21 -24 52 -48 56
-45 163 -163 163 -181 0 -5 -21 -9 -47 -9 -109 0 -205 81 -288 242 -25 47 -45
89 -45 92 0 11 95 6 159 -9z m126 -464 c40 -18 95 -66 95 -82 0 -12 -7 -11
-41 7 -28 14 -170 46 -176 40 -2 -2 27 -16 64 -31 82 -34 133 -63 133 -76 0
-15 -65 -39 -105 -39 -42 0 -96 26 -181 86 -34 24 -67 44 -73 44 -9 0 -17 20
-8 20 1 0 29 11 62 25 75 31 171 33 230 6z m835 4 c73 -26 75 -33 22 -69 -26
-18 -68 -47 -93 -65 -31 -22 -63 -35 -93 -38 -48 -6 -109 12 -103 30 3 11 48
37 137 78 l65 29 -45 -6 c-25 -3 -72 -17 -105 -30 -32 -13 -61 -21 -64 -18
-11 10 38 60 79 82 53 26 136 29 200 7z m-862 -915 l33 0 -20 -28 c-11 -15
-44 -41 -75 -56 -53 -27 -58 -28 -153 -20 -94 7 -96 8 -53 17 85 16 129 37
147 69 16 26 22 29 53 24 19 -3 50 -6 68 -6z m817 -30 c34 -36 78 -50 160 -51
l60 -1 -70 -13 c-111 -21 -127 -19 -162 18 -36 37 -52 77 -31 77 8 0 27 -14
43 -30z m-372 -140 c66 -99 81 -153 53 -195 -20 -31 -58 -33 -104 -5 -75 46
-94 142 -46 238 14 29 29 52 32 51 4 0 33 -40 65 -89z m-467 32 c-9 -18 -27
-32 -43 -37 -15 -3 -50 -18 -78 -31 l-50 -25 31 31 c29 29 145 101 152 95 2
-2 -3 -17 -12 -33z m228 -226 c16 -28 52 -65 88 -92 53 -39 57 -44 34 -44 -67
0 -153 62 -187 135 -26 57 -25 137 4 187 l22 41 6 -90 c4 -74 11 -99 33 -137z"/>
<path d="M3175 9911 c-33 -9 -92 -32 -130 -51 -68 -33 -69 -34 -37 -38 20 -2
59 7 95 21 34 14 76 28 94 31 19 5 35 15 38 27 4 11 5 22 3 24 -1 1 -30 -5
-63 -14z"/>
<path d="M3652 9913 c5 -24 224 -97 253 -84 17 8 13 12 -37 36 -57 26 -180 65
-206 65 -7 0 -12 -8 -10 -17z"/>
<path d="M3670 9810 c0 -22 51 -44 79 -35 33 10 25 20 -29 36 -46 15 -50 14
-50 -1z"/>
<path d="M3152 9803 c-44 -15 -48 -33 -7 -33 37 0 75 18 75 35 0 18 -12 18
-68 -2z"/>
<path d="M2641 9614 c-114 -119 -181 -232 -237 -396 -65 -191 -77 -385 -34
-566 19 -78 33 -103 50 -86 6 6 2 43 -10 104 -22 106 -26 266 -9 370 32 203
131 400 276 551 44 46 62 71 57 83 -3 9 -10 16 -14 16 -4 0 -40 -34 -79 -76z"/>
<path d="M4175 9670 c-4 -6 18 -39 48 -73 113 -129 183 -252 231 -406 47 -148
50 -392 7 -544 -16 -59 -17 -69 -4 -74 21 -8 30 5 47 72 86 338 -11 716 -250
974 -57 62 -68 69 -79 51z"/>
<path d="M2714 9538 c-159 -172 -251 -391 -262 -619 -7 -155 24 -319 60 -319
22 0 22 3 1 82 -12 44 -17 103 -17 198 0 159 20 249 90 395 48 101 86 157 161
239 32 35 50 62 47 71 -10 24 -19 19 -80 -47z"/>
<path d="M4125 9579 c-5 -15 1 -30 23 -53 86 -90 177 -260 213 -397 30 -114
30 -307 1 -424 -18 -68 -19 -82 -7 -94 12 -12 16 -10 25 15 51 133 61 359 21
504 -44 165 -109 287 -219 412 -46 52 -51 56 -57 37z"/>
<path d="M1460 7444 c-264 -57 -434 -298 -417 -593 14 -256 168 -451 399 -506
80 -19 235 -19 313 -1 33 8 93 27 133 41 l72 27 0 299 0 299 -185 0 -185 0 0
-120 0 -119 63 -3 62 -3 0 -80 0 -80 -56 -9 c-120 -19 -229 28 -286 123 -76
126 -50 329 53 420 91 80 217 83 329 8 l49 -34 41 56 c104 142 108 151 90 171
-29 32 -152 90 -222 105 -84 18 -168 18 -253 -1z"/>
<path d="M3383 7440 c-131 -34 -223 -98 -297 -208 -227 -333 -60 -809 311
-887 295 -63 555 87 643 370 26 84 31 241 11 325 -75 305 -365 479 -668 400z
m229 -255 c58 -20 104 -66 137 -135 22 -47 26 -68 26 -150 -1 -74 -5 -105 -21
-140 -30 -66 -72 -110 -129 -136 -127 -60 -265 -3 -329 136 -16 35 -20 66 -21
135 0 82 3 96 33 157 61 124 178 175 304 133z"/>
<path d="M2080 6891 l0 -561 135 0 135 0 0 215 0 215 33 0 c32 0 33 -1 140
-215 l108 -215 165 0 165 0 -42 78 c-23 42 -59 106 -79 142 -20 36 -60 108
-88 160 l-51 96 28 12 c43 19 98 77 128 135 38 74 44 207 14 288 -30 79 -80
132 -159 171 l-67 33 -282 3 -283 3 0 -560z m506 296 c17 -20 24 -40 24 -68 0
-85 -38 -109 -170 -109 l-90 0 0 106 0 106 106 -4 c102 -3 107 -4 130 -31z"/>
<path d="M4090 7444 c0 -7 247 -750 322 -967 l51 -148 141 3 141 3 110 327
c61 181 113 328 117 328 3 0 10 -15 13 -32 8 -37 156 -493 187 -575 l19 -53
139 0 138 0 35 103 c43 125 208 602 288 832 32 94 59 174 59 178 0 4 -67 7
-148 7 l-149 0 -97 -307 c-105 -333 -129 -401 -132 -387 -4 16 -155 526 -180
612 l-25 83 -147 -3 -146 -3 -58 -185 c-33 -102 -82 -257 -111 -345 l-51 -160
-18 60 c-11 33 -58 188 -106 345 l-87 285 -153 3 c-83 1 -152 0 -152 -4z"/>
<path d="M1322 6124 c-73 -19 -103 -36 -160 -92 -184 -180 -155 -500 59 -637
90 -58 233 -71 330 -32 65 27 129 73 129 93 0 8 -23 43 -52 78 l-52 63 -41
-29 c-129 -91 -285 0 -285 166 0 90 41 170 102 202 45 23 126 15 177 -19 l40
-26 50 67 c28 37 51 72 51 78 0 20 -92 72 -155 89 -72 18 -123 18 -193 -1z"/>
<path d="M2012 6130 c-240 -51 -362 -352 -243 -595 37 -74 92 -127 170 -164
49 -23 68 -26 161 -26 126 0 172 17 254 95 164 155 164 450 -1 600 -86 78
-223 115 -341 90z m173 -203 c63 -35 87 -91 83 -198 -4 -101 -27 -147 -94
-179 -74 -36 -145 -21 -201 43 -38 43 -47 82 -41 176 6 115 67 180 168 181 28
0 60 -9 85 -23z"/>
<path d="M4835 6127 c-173 -45 -285 -200 -285 -393 0 -238 170 -405 400 -392
143 8 257 86 318 216 25 52 27 67 27 182 0 116 -2 129 -27 180 -42 86 -90 135
-171 175 -84 42 -179 53 -262 32z m192 -205 c46 -33 74 -97 74 -175 1 -143
-86 -233 -207 -214 -161 26 -196 307 -50 399 43 26 139 22 183 -10z"/>
<path d="M2540 6123 c0 -5 0 -154 -1 -333 -1 -179 -1 -353 0 -387 l1 -63 95 0
95 0 2 208 3 207 40 -65 c21 -36 81 -129 132 -207 l93 -143 95 0 95 0 0 395 0
395 -100 0 -100 0 -1 -112 c0 -62 0 -153 1 -201 1 -59 -2 -87 -9 -83 -6 4 -36
48 -67 99 -31 51 -88 138 -126 195 l-68 102 -90 0 c-50 0 -90 -3 -90 -7z"/>
<path d="M3280 6040 l0 -90 100 0 101 0 -2 -302 -1 -303 101 -3 101 -3 0 306
0 305 95 0 95 0 0 90 0 90 -295 0 -295 0 0 -90z"/>
<path d="M3910 5735 l0 -395 100 0 100 0 0 150 c0 149 0 150 23 150 18 0 34
-23 97 -148 l75 -147 108 -3 c59 -1 107 0 107 4 0 3 -39 78 -86 166 -47 88
-82 163 -77 167 4 4 25 20 47 35 113 84 106 292 -13 367 -68 44 -100 49 -298
49 l-183 0 0 -395z m343 224 c30 -16 37 -28 37 -70 0 -54 -27 -73 -111 -77
l-69 -4 0 81 0 81 61 0 c33 0 70 -5 82 -11z"/>
<path d="M5360 5735 l0 -395 245 0 245 0 0 95 0 95 -145 0 -145 0 -1 233 c0
127 -1 261 -2 297 l-2 65 -97 3 -98 3 0 -396z"/>
</g>
</svg>
